<?xml version="1.0" encoding="UTF-8"?>
<svg width="24px" height="24px" viewBox="0 0 24 24" version="1.1" xmlns="http://www.w3.org/2000/svg" xmlns:xlink="http://www.w3.org/1999/xlink">
    <g stroke="none" stroke-width="1" fill="none" fill-rule="evenodd">
        <path d="M12,8 C9.79,8 8,9.79 8,12 C8,14.21 9.79,16 12,16 C14.21,16 16,14.21 16,12 C16,9.79 14.21,8 12,8 Z M12,14 C10.9,14 10,13.1 10,12 C10,10.9 10.9,10 12,10 C13.1,10 14,10.9 14,12 C14,13.1 13.1,14 12,14 Z" fill="currentColor" fill-rule="nonzero"></path>
        <path d="M20.75,12 C20.75,11.31 20.7,10.66 20.59,10.06 L23.07,8.1 C23.32,7.9 23.39,7.55 23.23,7.27 L20.9,3.27 C20.75,3 20.4,2.88 20.11,3 L17.21,4.24 C16.43,3.64 15.56,3.16 14.63,2.82 L14.08,0.1 C14.03,-0.18 13.8,-0.4 13.51,-0.4 L9.51,-0.4 C9.22,-0.4 8.99,-0.18 8.94,0.1 L8.39,2.82 C7.45,3.16 6.59,3.63 5.81,4.24 L2.91,3 C2.62,2.89 2.27,3 2.12,3.27 L-0.21,7.27 C-0.38,7.55 -0.3,7.9 -0.05,8.1 L2.43,10.06 C2.32,10.66 2.27,11.32 2.27,12 C2.27,12.68 2.32,13.34 2.43,13.94 L-0.05,15.9 C-0.3,16.1 -0.38,16.45 -0.21,16.73 L2.12,20.73 C2.27,21 2.62,21.12 2.91,21 L5.81,19.76 C6.59,20.36 7.46,20.84 8.39,21.18 L8.94,23.9 C8.99,24.18 9.22,24.4 9.51,24.4 L13.51,24.4 C13.8,24.4 14.03,24.18 14.08,23.9 L14.63,21.18 C15.57,20.84 16.43,20.37 17.21,19.76 L20.11,21 C20.4,21.11 20.75,21 20.9,20.73 L23.23,16.73 C23.39,16.45 23.32,16.1 23.07,15.9 L20.59,13.94 C20.7,13.34 20.75,12.68 20.75,12 Z M18.74,12 C18.74,12.54 18.7,13.05 18.61,13.54 L18.44,14.38 L19.09,14.9 L20.38,15.93 L19.38,17.65 L17.85,16.95 L17.06,16.6 L16.36,17.16 C15.72,17.67 15.01,18.07 14.26,18.35 L13.47,18.64 L13.3,19.47 L13,21.4 L11,21.4 L10.7,19.47 L10.53,18.64 L9.74,18.35 C8.98,18.07 8.28,17.67 7.65,17.17 L6.95,16.61 L6.15,16.96 L4.62,17.66 L3.62,15.94 L4.91,14.91 L5.56,14.39 L5.39,13.55 C5.3,13.06 5.26,12.54 5.26,12 C5.26,11.46 5.3,10.95 5.39,10.46 L5.56,9.62 L4.91,9.1 L3.62,8.07 L4.62,6.35 L6.15,7.05 L6.94,7.4 L7.64,6.84 C8.28,6.33 8.99,5.93 9.74,5.65 L10.53,5.36 L10.7,4.53 L11,2.6 L13,2.6 L13.3,4.53 L13.47,5.36 L14.26,5.65 C15.02,5.93 15.72,6.33 16.35,6.83 L17.05,7.39 L17.85,7.04 L19.38,6.34 L20.38,8.06 L19.09,9.09 L18.44,9.61 L18.61,10.45 C18.71,10.95 18.74,11.46 18.74,12 Z" fill="currentColor" fill-rule="nonzero" transform="translate(11.500, 12.000) scale(0.833) translate(-11.500, -12.000) "></path>
    </g>
</svg>
