<?xml version="1.0" encoding="UTF-8"?>
<svg width="24px" height="24px" viewBox="0 0 24 24" version="1.1" xmlns="http://www.w3.org/2000/svg" xmlns:xlink="http://www.w3.org/1999/xlink">
    <title>Settings</title>
    <g stroke="currentColor" stroke-width="2" fill="none" fill-rule="evenodd" stroke-linecap="round" stroke-linejoin="round">
        <circle cx="12" cy="12" r="3"></circle>
        <path d="M19.4,15 L19.4,15 C19.7,15.6 20.3,15.9 20.9,15.8 L21,15.8 C22.2,15.5 23,14.4 22.8,13.2 L22.8,13.2 C22.6,12.1 21.5,11.3 20.3,11.5 L20.2,11.5 C19.6,11.6 19,11.3 18.7,10.7 C18.4,10.2 18,9.7 17.6,9.2 L17.6,9.2 C17.2,8.7 17.1,8 17.4,7.4 L17.4,7.4 C17.8,6.3 17.3,5.1 16.2,4.7 L16.2,4.7 C15.1,4.3 13.9,4.8 13.5,5.9 L13.5,5.9 C13.3,6.5 12.7,6.8 12.1,6.8 C11.5,6.8 10.9,6.8 10.3,6.8 L10.3,6.8 C9.7,6.8 9.1,6.4 8.9,5.9 L8.9,5.9 C8.5,4.8 7.3,4.3 6.2,4.7 L6.2,4.7 C5.1,5.1 4.6,6.3 5,7.4 L5,7.4 C5.3,8 5.2,8.7 4.8,9.2 C4.4,9.7 4,10.2 3.7,10.7 L3.7,10.7 C3.4,11.3 2.8,11.6 2.2,11.5 L2.1,11.5 C0.9,11.3 -0.2,12.1 -0.4,13.2 L-0.4,13.2 C-0.6,14.4 0.2,15.5 1.4,15.8 L1.5,15.8 C2.1,15.9 2.7,16.3 3,16.9 C3.3,17.5 3.7,18 4.1,18.5 L4.1,18.5 C4.5,19 4.6,19.7 4.3,20.3 L4.3,20.3 C3.9,21.4 4.4,22.6 5.5,23 L5.5,23 C6.6,23.4 7.8,22.9 8.2,21.8 L8.2,21.8 C8.4,21.2 9,20.9 9.6,20.9 C10.2,20.9 10.8,20.9 11.4,20.9 L11.4,20.9 C12,20.9 12.6,21.3 12.8,21.8 L12.8,21.8 C13.2,22.9 14.4,23.4 15.5,23 L15.5,23 C16.6,22.6 17.1,21.4 16.7,20.3 L16.7,20.3 C16.4,19.7 16.5,19 16.9,18.5 C17.3,18 17.7,17.5 18,16.9 L18,16.9 C18.3,16.3 18.9,15.9 19.4,15 Z"></path>
    </g>
</svg>
